GREETZ: UnDeaD - BadGirl2k9 - virusofsaten - foxyb - WICCYWOLF - lizzymwah1

VISIT http://www.seedboxworld.biz/ for all ur seedbox needs!

RELEASE NAME: Royal Kill 2009 DVDRip XviD - SDTeam
RELEASED BY: UnDeaD & BadGirl2k9
SIZE: 360 MB

LANGUAGE: English
IMDb: http://www.imdb.com/title/tt0421237/

PLOT: When a female assassin is sent to the US to 
kill the last living heir to the modern day Himalayan 
Kingdom, royal solider is also sent to protect her. When 
he is face to face with the assassin his duty to the Kingdom 
becomes compromised. As they battle, secrets are uncovered and 
the line between good and evil is erased. Only one mission 
can be completed and only one person can survive.

SCREENS: 
http://i658.photobucket.com/albums/uu309/BadGirl2k9/screens/vlcsnap-2010-09-01-20h17m37s104.png 
http://i658.photobucket.com/albums/uu309/BadGirl2k9/screens/vlcsnap-2010-09-01-20h17m50s249.png 
http://i658.photobucket.com/albums/uu309/BadGirl2k9/screens/vlcsnap-2010-09-01-20h18m10s187.png

General
Format                           : AVI
Format/Info                      : Audio Video Interleave
File size                        : 360 MiB
Duration                         : 1h 28mn
Overall bit rate                 : 572 Kbps
Writing application              : MEncoder SVN-r22963
Writing library                  : MPlayer

Video
ID                               : 0
Format                           : MPEG-4 Visual
Format profile                   : Simple@L3
Format settings, BVOP            : No
Format settings, QPel            : No
Format settings, GMC             : No warppoints
Format settings, Matrix          : Default (H.263)
Codec ID                         : XVID
Codec ID/Hint                    : XviD
Duration                         : 1h 28mn
Bit rate                         : 496 Kbps
Width                            : 512 pixels
Height                           : 288 pixels
Display aspect ratio             : 16:9
Frame rate                       : 20.000 fps
Resolution                       : 8 bits
Colorimetry                      : 4:2:0
Scan type                        : Progressive
Bits/(Pixel*Frame)               : 0.168
Stream size                      : 313 MiB (87%)
Writing library                  : XviD 1.1.2 (UTC 2006-11-01)

Audio
ID                               : 1
Format                           : MPEG Audio
Format version                   : Version 1
Format profile                   : Layer 3
Codec ID                         : 55
Codec ID/Hint                    : MP3
Duration                         : 1h 28mn
Bit rate mode                    : Constant
Bit rate                         : 64.0 Kbps
Channel(s)                       : 2 channels
Sampling rate                    : 44.1 KHz
Stream size                      : 40.3 MiB (11%)
Alignment                        : Aligned on interleaves
Interleave, duration             : 26 ms (0.52 video frame)
Interleave, preload duration     : 522 ms

GROUP NOTE: Big thanks to seedboxworld.biz for the seedbox!
